<svg xmlns="http://www.w3.org/2000/svg" viewBox="0 0 73.7 67.73"><defs><style>.cls-1{fill:none;stroke:#853f4c;stroke-miterlimit:10;stroke-width:2px;}.cls-2{font-size:10.7px;fill:#79435b;font-family:GyeonggiBatangB;letter-spacing:-0.1em;}</style></defs><g id="레이어_2" data-name="레이어 2"><g id="레이어_1-2" data-name="레이어 1"><path class="cls-1" d="M67.06,29.71c-.23,8.16-.38,15.25-3.73,21.89-4.18,8.31-10.88,13.22-20.27,14.64-7.45,1.12-14.63.42-21.39-3.23-5.93-3.21-10.06-7.95-11.8-14.1C6.78,38,7.07,27,11.72,16.47,15.54,7.81,22.6,2.91,32.19,1.5,39.8.38,47.19,1,54,4.87A24.33,24.33,0,0,1,66.71,24.31C67,26.45,67,28.6,67.06,29.71Z"/><path class="cls-1" d="M67.09,30.06c3.15-.33,4,1.49,4.88,3.35,1.53,3.31.56,8.41-2,10.33-1.63,1.24-3.81.5-3.75-1.46C66.36,38.21,66.79,34.15,67.09,30.06Z"/><path class="cls-1" d="M7.05,31.35C3.68,31,2.73,32.87,1.8,34.79.15,38.22,1.16,43.5,3.86,45.52c1.74,1.29,4.08.54,4-1.49-.09-4.23-.54-8.44-.84-12.68"/><text class="cls-2" transform="translate(25.35 26.46) scale(1.02 1)">영양/<tspan x="-7.94" y="12.85">스케일링</tspan><tspan x="1.7" y="25.69">선택</tspan></text></g></g></svg>