<svg xmlns="http://www.w3.org/2000/svg" viewBox="0 0 73.7 67.78"><defs><style>.cls-1{fill:none;stroke-width:2px;}.cls-1,.cls-3{stroke:#853f4c;stroke-miterlimit:10;}.cls-2{font-size:10.7px;fill:#79435b;font-family:GyeonggiBatangB;letter-spacing:-0.1em;}.cls-3{fill:#853f4c;}</style></defs><g id="레이어_2" data-name="레이어 2"><g id="레이어_1-2" data-name="레이어 1"><path class="cls-1" d="M67.06,29.77c-.23,8.16-.38,15.24-3.73,21.89C59.15,60,52.45,64.88,43.06,66.29c-7.45,1.13-14.63.42-21.39-3.23C15.74,59.86,11.61,55.12,9.87,49c-3.09-10.92-2.8-21.91,1.85-32.45C15.54,7.87,22.6,3,32.19,1.55,39.8.44,47.19,1.06,54,4.93A24.31,24.31,0,0,1,66.71,24.37C67,26.5,67,28.66,67.06,29.77Z"/><path class="cls-1" d="M67.09,30.12c3.15-.33,4,1.49,4.88,3.34,1.53,3.32.56,8.41-2,10.34-1.63,1.24-3.81.5-3.75-1.46C66.36,38.27,66.79,34.2,67.09,30.12Z"/><path class="cls-1" d="M7.05,31.41C3.68,31,2.73,32.93,1.8,34.84c-1.65,3.43-.64,8.72,2.06,10.74,1.74,1.29,4.08.54,4-1.5-.09-4.22-.54-8.44-.84-12.67"/><text class="cls-2" transform="translate(25.35 27.05) scale(1.02 1)">영양/<tspan x="-7.94" y="12.85">스케일링</tspan><tspan x="1.7" y="25.69">선택</tspan></text><path class="cls-3" d="M8,31.05c1.54,1.7,5.32,1.23,7.82-.53,4.49-3.17,4.25-10.08,5.81-10s.9,6.06,4.4,9.88c4.72,5.15,15.59,4.85,19-.17,2.91-4.28-.09-11.33,1.09-11.72s3.07,8.36,9,11.22c3.77,1.83,9.15,1.95,11.42-.87,3.5-4.33-.59-15.24-6.71-21.24C52.27.24,42,.41,34.93.53A28.75,28.75,0,0,0,24.72,2.38,23.18,23.18,0,0,0,15.93,7.9a27.17,27.17,0,0,0-5,7.54,36,36,0,0,0-2,5.36C7.46,25.55,6.36,29.29,8,31.05Z"/></g></g></svg>