<svg xmlns="http://www.w3.org/2000/svg" viewBox="0 0 73.7 68.23"><defs><style>.cls-1{fill:none;stroke-width:2px;}.cls-1,.cls-3{stroke:#853f4c;stroke-miterlimit:10;}.cls-2,.cls-3{fill:#853f4c;}</style></defs><g id="레이어_2" data-name="레이어 2"><g id="레이어_1-2" data-name="레이어 1"><path class="cls-1" d="M67.06,30.21c-.23,8.16-.38,15.25-3.73,21.89-4.18,8.31-10.88,13.22-20.27,14.64-7.45,1.12-14.63.42-21.39-3.23-5.93-3.21-10.06-7.95-11.8-14.1C6.78,38.49,7.07,27.51,11.72,17,15.54,8.31,22.6,3.41,32.19,2,39.8.88,47.19,1.5,54,5.37A24.33,24.33,0,0,1,66.71,24.81C67,27,67,29.1,67.06,30.21Z"/><path class="cls-1" d="M67.09,30.56c3.15-.33,4,1.49,4.88,3.35,1.53,3.31.56,8.41-2,10.33-1.63,1.24-3.81.5-3.75-1.46C66.36,38.71,66.79,34.65,67.09,30.56Z"/><path class="cls-2" d="M26.88,37.15a3.16,3.16,0,0,1-2.7,3.19c-1.94,0-3.21-1.41-3.19-3.62a3.26,3.26,0,0,1,3-3.25C25.69,33.45,26.87,35,26.88,37.15Z"/><path class="cls-2" d="M52.61,36.86a3.24,3.24,0,0,1-2.68,3.22c-2,.05-3.22-1.37-3.21-3.6a3.25,3.25,0,0,1,3-3.27C51.39,33.17,52.59,34.66,52.61,36.86Z"/><path class="cls-1" d="M7.05,31.85c-3.37-.36-4.32,1.52-5.25,3.44C.15,38.72,1.16,44,3.86,46c1.74,1.29,4.08.54,4-1.49-.09-4.23-.54-8.44-.84-12.68"/><path class="cls-2" d="M37.33,42.9a8.46,8.46,0,0,0-.87,0l.11-.11a7.79,7.79,0,0,0,.62-.8A5.6,5.6,0,0,0,38,38.29a1.71,1.71,0,0,0-1.65-1.66,1.68,1.68,0,0,0-1.66,1.66,3,3,0,0,1-1,2.62,3,3,0,0,0-.8,2.52c.36,2.13,2.5,2.77,4.39,2.78A1.66,1.66,0,0,0,37.33,42.9Z"/><path class="cls-2" d="M43.74,48.07c-2.63,6.86-11.43,6.46-14.3.1-.87-1.94-3.72-.26-2.85,1.66C30.76,59.1,43.4,58.12,46.93,49,47.69,47,44.5,46.1,43.74,48.07Z"/><path class="cls-3" d="M9,31.05c1.54,1.7,5.32,1.23,7.82-.53,4.48-3.17,4.24-10.08,5.8-10s.9,6.06,4.4,9.88c4.72,5.15,15.59,4.85,19-.17C49,25.9,46,18.85,47.14,18.46s3.06,8.36,9,11.22c3.77,1.83,9.15,1.95,11.42-.87,3.49-4.33-.6-15.24-6.71-21.24C53.33.24,43.05.41,36,.53A28.8,28.8,0,0,0,25.78,2.38,23.18,23.18,0,0,0,17,7.9a27.09,27.09,0,0,0-5,7.54,36,36,0,0,0-2,5.36C8.53,25.55,7.43,29.29,9,31.05Z"/></g></g></svg>