<svg xmlns="http://www.w3.org/2000/svg" viewBox="0 0 73.7 67.73"><defs><style>.cls-1{fill:none;stroke:#853f4c;stroke-miterlimit:10;stroke-width:2px;}.cls-2{fill:#853f4c;}</style></defs><g id="레이어_2" data-name="레이어 2"><g id="레이어_1-2" data-name="레이어 1"><path class="cls-1" d="M67.06,29.71c-.23,8.16-.38,15.25-3.73,21.89-4.18,8.31-10.88,13.22-20.27,14.64-7.45,1.12-14.63.42-21.39-3.23-5.93-3.21-10.06-7.95-11.8-14.1C6.78,38,7.07,27,11.72,16.47,15.54,7.81,22.6,2.91,32.19,1.5,39.8.38,47.19,1,54,4.87A24.33,24.33,0,0,1,66.71,24.31C67,26.45,67,28.6,67.06,29.71Z"/><path class="cls-1" d="M67.09,30.06c3.15-.33,4,1.49,4.88,3.35,1.53,3.31.56,8.41-2,10.33-1.63,1.24-3.81.5-3.75-1.46C66.36,38.21,66.79,34.15,67.09,30.06Z"/><path class="cls-2" d="M26.88,36.65a3.16,3.16,0,0,1-2.7,3.19c-1.94,0-3.21-1.41-3.19-3.62A3.26,3.26,0,0,1,24,33C25.69,33,26.87,34.45,26.88,36.65Z"/><path class="cls-2" d="M52.61,36.36a3.24,3.24,0,0,1-2.68,3.22c-2,.05-3.22-1.37-3.21-3.6a3.25,3.25,0,0,1,3-3.27C51.39,32.67,52.59,34.16,52.61,36.36Z"/><path class="cls-1" d="M7.05,31.35C3.68,31,2.73,32.87,1.8,34.79.15,38.22,1.16,43.5,3.86,45.52c1.74,1.29,4.08.54,4-1.49-.09-4.23-.54-8.44-.84-12.68"/><path class="cls-2" d="M37.33,42.4a8.46,8.46,0,0,0-.87,0l.11-.11a7.79,7.79,0,0,0,.62-.8A5.6,5.6,0,0,0,38,37.79a1.71,1.71,0,0,0-1.65-1.66,1.68,1.68,0,0,0-1.66,1.66,3,3,0,0,1-1,2.62,3,3,0,0,0-.8,2.52c.36,2.13,2.5,2.77,4.39,2.78A1.66,1.66,0,0,0,37.33,42.4Z"/><path class="cls-2" d="M43.74,47.57c-2.63,6.86-11.43,6.46-14.3.1-.87-1.94-3.72-.26-2.85,1.66,4.17,9.27,16.81,8.29,20.34-.88C47.69,46.46,44.5,45.6,43.74,47.57Z"/></g></g></svg>